# xmcd
#
# Track frame offsets:
#	183
#	12948
#	32183
#	46558
#	61045
#	74433
#	89503
#	102863
#	114158
#	128048
#	141848
#	155095
#	169933
#	183423
#	193765
#	206823
#	220093
#	232303
#
# Disc length: 3349
#
# Revision: 1
# Processed by: cddbd v1.5.1PL0 Copyright (c) Steve Scherf et al.
# Submitted via: EasyCDDAExtractor 4.5.0.2
# Normalized: r0:TDELIM( - )
#
DISCID=030d1312
DTITLE=Black and Blues Vol 2 - Black and Blues CD 1
DYEAR=1991
DGENRE=blues
TTITLE0=Muddy Waters - Hoochie coochie man
TTITLE1=Lightnin' Hopkins - CatFish Blues
TTITLE2=Howlin' Wolf - Watergate Blues
TTITLE3=Big Bill Broonzy - Romance Without Finance
TTITLE4=Jimmy Reed - Hard Walking Hanna
TTITLE5=John Lee Hooker - Ramblin' by Myself
TTITLE6=Sonny Boy Williamson - Sad To be Alone
TTITLE7=Memphis Slim - Feelin' Low
TTITLE8=Buddy Guy - I Got a Strange Feeling
TTITLE9=Koko Taylor - I Got What It Takes
TTITLE10=Lowell Fulsion - Hung Down Head
TTITLE11=Shakey Horton - Hard Hearted  Woman
TTITLE12=JB Lenoir - Stting down Thinking
TTITLE13=Chuck Berry - Deep Feeling
TTITLE14=Little Water - Mean Old World
TTITLE15=Jimmy Rogers - The World's In a Tangle
TTITLE16=Otis Spann - I'm Leaving You
TTITLE17=Etta James - Baby What You Want Me To Do
EXTD=
EXTT0=
EXTT1=
EXTT2=
EXTT3=
EXTT4=
EXTT5=
EXTT6=
EXTT7=
EXTT8=
EXTT9=
EXTT10=
EXTT11=
EXTT12=
EXTT13=
EXTT14=
EXTT15=
EXTT16=
EXTT17=
PLAYORDER=
